<?xml version="1.0" encoding="UTF-8"?>
<!-- Created with Inkscape (http://www.inkscape.org/) -->
<svg width="149.41mm" height="138.17mm" version="1.1" viewBox="0 0 149.41 138.17" xml:space="preserve" xmlns="http://www.w3.org/2000/svg"><g transform="translate(-30.331 -79.347)"><path d="m50.538 216.39c-3.5387-2.5578-5.4239-4.227-8.5639-7.5829-1.7261-1.8448-2.1782-2.4059-3.3511-4.1593-4.7867-7.1558-7.4737-14.572-8.1845-22.589-0.18736-2.1131-0.11888-6.7449 0.12975-8.7773 0.79941-6.5346 2.9767-13.254 5.8308-17.995 2.9024-4.821 6.805-9.3835 10.704-12.514 0.82475-0.66222 1.7898-1.4507 2.1446-1.7522 0.35478-0.3015 0.99443-0.76452 1.4215-1.0289 2.5903-1.6039 6.881-3.8179 9.0941-4.6927l1.3751-0.54348 7.78e-4 -19.104 7.78e-4 -19.104-1.2912-0.05567c-3.0412-0.13113-4.0879-0.25913-4.5932-0.5617-0.57588-0.34486-0.69233-0.87518-0.81681-3.7198-0.1088-2.4864-0.04228-10.12 0.09508-10.911 0.17287-0.99497 0.51848-1.4348 1.3066-1.6626 0.86764-0.25087 3.5112-0.29239 18.592-0.29199 16.783 4.48e-4 22.298 0.07403 22.685 0.30268 0.59345 0.35056 0.88185 1.2298 1.0331 3.1496 0.11364 1.4421 0.04412 10.327-0.0889 11.361-0.13499 1.0492-0.42271 1.5775-1.0248 1.8817-0.64124 0.32394-1.3314 0.40067-3.6215 0.40262l-1.9723 0.0017 0.04286 0.27517c0.02357 0.15134 0.06363 7.6475 0.08903 16.658 0.02539 9.0106 0.07 17.551 0.09913 18.98l0.05296 2.5966 1.0684 0.39908c4.8304 1.8044 8.4185 3.9054 12.583 7.368 1.3609 1.1315 4.6135 4.3687 5.832 5.8043 3.397 4.0024 6.1799 8.5406 7.9108 12.901 3.4401 8.6655 4.0047 19.277 1.5341 28.829-0.82032 3.1716-1.8236 5.7436-3.5834 9.1863-2.1182 4.1439-4.8532 7.8331-8.4687 11.424-1.6205 1.6092-3.2394 2.977-5.8815 4.969l-2.2333 1.6838h-48.391zm47.856-3.0113c0.53552-0.0551 1.1691-0.1559 1.4081-0.22396 0.55803-0.15898 1.6068-0.91026 1.9177-1.3737 0.13745-0.20488 0.30829-0.35983 0.39674-0.35983 0.30841 0 1.2682-0.83316 3.3111-2.8742 3.0146-3.012 4.6666-4.9732 6.2793-7.4551 4.9906-7.6801 7.021-15.777 6.4966-25.908-0.25026-4.8346-0.96767-7.9549-3.0222-13.145l-0.72905-1.8416-76.366 0.0426-0.4959 1.1853c-2.4655 5.8932-3.623 12.461-3.3011 18.732 0.4414 8.5963 2.7972 15.583 7.561 22.425 1.5332 2.2018 3.7805 4.7946 5.5494 6.4024 1.3007 1.1823 4.5536 3.8462 4.941 4.0465 0.88316 0.45656 2.5883 0.48749 25.691 0.46612 14.21-0.0131 19.649-0.0447 20.362-0.11813zm-9.8787-13.39c-2.4056-0.43248-4.6494-2.604-5.1585-4.9926-0.17354-0.81414-0.11279-2.1594 0.13754-3.0457 0.59887-2.1202 2.2869-3.7904 4.3691-4.323 1.3825-0.3536 3.0726-0.17491 4.3287 0.45767 2.4338 1.2257 3.8316 3.745 3.5024 6.3125-0.1054 0.82183-0.40253 1.7567-0.75537 2.3765-0.83651 1.4696-2.3671 2.666-3.9535 3.0905-0.62412 0.16701-1.8806 0.23012-2.4704 0.12409zm1.5689-3.9819c1.0542-0.22608 1.6461-0.99321 1.6515-2.1403 7e-3 -1.489-0.91496-2.5958-2.1623-2.5958-0.64042 0-1.592 0.46641-1.8995 0.93098-0.62453 0.94372-0.57906 2.4018 0.10007 3.2089 0.46319 0.55046 1.3983 0.7918 2.3102 0.59623zm-22.375-7.2838c-0.78304-0.19232-2.0009-0.74937-2.7685-1.2663-0.69255-0.46637-1.8053-1.5791-2.2716-2.2716-0.50885-0.75562-1.0592-1.9551-1.2866-2.8044-0.16007-0.59778-0.19196-0.92758-0.18825-1.9473 0.0053-1.4631 0.16328-2.1698 0.74754-3.3443 0.46282-0.93039 0.92846-1.5586 1.8439-2.4877 1.8274-1.8546 3.472-2.6305 5.5818-2.6334 1.0442-1e-3 1.8588 0.13677 2.9391 0.49871 2.8595 0.958 4.6939 2.8442 5.4424 5.596 0.17719 0.65135 0.19561 0.89651 0.19403 2.5823-0.0016 1.7514-0.01452 1.9037-0.2156 2.55-0.56672 1.8215-2.1809 3.7482-3.8864 4.639-0.73674 0.38478-1.8672 0.77422-2.7133 0.93472-0.97513 0.18498-2.5658 0.1637-3.4185-0.0457zm3.0415-3.9296c1.1203-0.23511 1.5597-0.44874 2.1657-1.053 2.4802-2.4727 1.2513-6.9597-2.1005-7.67-2.0605-0.43664-4.0117 0.2171-4.933 1.6528-0.87212 1.3591-0.95847 3.6864-0.18963 5.1108 0.45171 0.83684 1.3203 1.5277 2.4169 1.9225 0.54815 0.19733 1.7931 0.21472 2.6405 0.0369zm38.947-28.398c2.1005-0.12092 2.2906-0.15769 2.2725-0.43945-0.0542-0.84013-4.027-5.8291-6.5741-8.2555-1.5918-1.5165-3.8035-3.2958-5.508-4.4314-2.5927-1.7273-7.1772-4.0679-7.9676-4.0679-0.10418 0-0.31888-0.0951-0.47711-0.21139-0.48756-0.35826-0.96282-0.54688-1.8966-0.75277-1.1037-0.24335-1.3259-0.41861-1.5657-1.2351-0.4403-1.4989-0.50288-4.5339-0.50592-24.534l-0.0024-16.023h-22.352v7.112l3.0692 6.4e-4c3.2459 6.8e-4 3.9374 0.0564 4.5501 0.36649 0.69215 0.35036 1.0708 1.2588 0.8564 2.0549-0.14022 0.52074-0.55587 1.0386-0.98648 1.2291-0.51518 0.22789-1.9747 0.32274-5.0127 0.32577l-2.4765 2e-3v7.0103l3.1538 0.0428c3.7958 0.0515 4.2771 0.12919 4.9062 0.79195 0.67534 0.71156 0.62319 1.7756-0.12499 2.5501-0.50164 0.51926-0.73635 0.54989-4.5272 0.59081l-3.4078 0.0368v6.9885l3.1115 0.0468c3.2766 0.0493 3.9332 0.11167 4.6592 0.44251 0.57255 0.2609 0.776 0.6558 0.77874 1.5115 0.0032 1.0112-0.46556 1.5239-1.638 1.7912-0.67481 0.15384-3.1915 0.28884-5.451 0.2924l-1.4605 2e-3 -7e-5 2.4342c-6.9e-5 2.374-0.09016 3.9776-0.25896 4.6094-0.17252 0.64578-1.0984 1.1876-4.1436 2.4248-2.2454 0.91227-3.788 1.6438-5.3816 2.5519-0.73766 0.42038-1.3885 0.76433-1.4463 0.76433-0.11124 0-2.7953 1.9993-4.0095 2.9866-2.6543 2.1583-6.6567 6.2801-6.8199 7.0235-0.03317 0.15102-0.13172 0.27433-0.25746 0.32213-0.35838 0.13626-2.4899 3.213-2.4899 3.594 0 0.17449 1.728 0.18199 37.677 0.16352 21.428-0.011 30.499-0.0433 31.708-0.11289zm-15.452-68.502v-4.572h-35.899v9.144h35.899zm29.099 129.14c-0.12485-0.26776-0.26285-0.65829-0.30667-0.86784-0.19238-0.92001-0.27371-2.9593-0.23974-6.0113 0.0393-3.5316 0.0707-3.7599 0.59661-4.3341 0.38547-0.42083 0.91212-0.55816 2.5615-0.6679 0.86239-0.0574 8.9008-0.10661 22.201-0.13599l20.849-0.0461v-77.874h-11.234l-0.0557 12.89c-0.0306 7.0898-0.0802 20.263-0.11014 29.274l-0.0544 16.383-0.66004 1.322c-1.7405 3.486-2.7045 4.7224-4.7454 6.0867-1.7826 1.1916-3.5204 1.9274-5.7042 2.4153-0.89561 0.20009-1.1364 0.22163-2.032 0.18177-1.6387-0.0729-3.6705-0.61013-5.374-1.4209-2.9082-1.3842-5.098-3.7012-6.3894-6.7607-0.45421-1.0761-0.60323-1.6787-0.72322-2.9247-0.19576-2.0328-0.25144-9.2398-0.25356-32.822l-2e-3 -24.609-3.6195-0.0366c-4.5344-0.0458-4.6943-0.0788-4.9757-1.0264-0.22672-0.76345-0.31185-2.6722-0.27244-6.1087 0.0402-3.5082 0.0736-3.8188 0.48179-4.4792 0.23541-0.38089 0.88365-0.6971 1.6548-0.80724 0.32597-0.0465 1.9738-0.0854 3.6618-0.0863l3.0692-2e-3v-9.2174l-2.5188-0.0268c-2.4301-0.0259-2.5315-0.0336-2.8786-0.219-1.1027-0.58907-1.2526-1.7928-1.181-9.4878 0.057-6.123 0.1234-6.731 0.76467-6.999 0.77299-0.32298 1.6601-0.33908 18.683-0.33908 16.898 0 18.097 0.02089 18.822 0.32807 0.75056 0.31772 0.80746 0.6274 0.9197 5.0059 0.10064 3.9256-3e-3 9.6261-0.18623 10.245-0.13541 0.45713-0.70914 0.99292-1.3235 1.2359-0.46452 0.18376-0.63345 0.19771-2.7596 0.2279l-2.2648 0.0322v9.2143h11.241l0.0466-15.727c0.0453-15.29 0.0788-17.189 0.31861-18.079 0.20815-0.77301 0.89817-1.3303 1.647-1.3303 0.44877 0 1.4432 0.27646 1.6234 0.45135 0.13699 0.1329 0.25962 6.6562 0.32018 17.032 0.0255 4.3773 0.0693 10.136 0.0973 12.798l0.0509 4.8395 2.3818 0.0362c2.6705 0.0406 3.0329 0.10179 3.4958 0.59076 0.69135 0.73027 0.72736 0.98321 0.76871 5.3998 0.0445 4.7511-0.0403 5.4522-0.72944 6.032-0.46219 0.38891-0.73439 0.42597-3.4181 0.46537l-2.5188 0.037v77.878l1.7568 2e-3c3.7317 5e-3 4.3184 0.20909 4.7315 1.6488 0.12462 0.43436 0.15066 1.0221 0.17963 4.0541 0.0327 3.4273-0.0232 4.7366-0.23461 5.4858-0.0483 0.17117-0.24235 0.54264-0.43124 0.8255l-0.34343 0.51429h-55.158zm52.435-5.7362v-2.2437h-49.022v4.4873h49.022zm-29.494-19.721c1.7494-0.368 3.3414-1.2671 4.8086-2.7156 0.82379-0.81334 1.3148-1.4851 1.9456-2.6618l0.47252-0.8815v-58.052h-17.671l-0.0539 1.6722c-0.0297 0.91969-0.0787 2.5327-0.10893 3.5845l-0.055 1.9124 2.0652 0.0574c2.8787 0.0799 3.7267 0.27874 4.2072 0.98626 0.27395 0.40333 0.23131 1.0524-0.11454 1.7434-0.42229 0.84379-0.38431 0.83436-3.488 0.86558l-2.6458 0.0266v7.4251l2.6035 0.0285c2.4471 0.0268 2.6238 0.0392 2.9422 0.2057 0.62934 0.32926 0.99557 1.4609 0.71493 2.2091-0.15397 0.41049-0.91976 1.1119-1.4329 1.3124-0.42453 0.16587-0.66724 0.18601-2.6475 0.2197l-2.1802 0.0371v7.0089h1.5997c2.7369 0 3.9812 0.21556 4.4482 0.77062 0.42212 0.50167 0.48142 1.4103 0.12949 1.9843-0.4167 0.67961-1.3563 0.8787-4.1666 0.88282l-2.0108 3e-3v7.0273l1.2488 3e-3c1.8629 4e-3 3.2405 0.12211 3.6757 0.31549 0.48773 0.21672 0.89316 0.56902 1.1857 1.0303 0.31345 0.49425 0.32773 1.1278 0.0393 1.7419-0.40019 0.85202-0.53505 0.88678-3.6828 0.9492l-2.4863 0.0493 0.0464 5.8931c0.054 6.8504 0.13803 7.9228 0.73211 9.3406 0.65379 1.5602 2.8089 3.6678 4.528 4.428 0.64721 0.28623 1.8103 0.61932 2.4985 0.71552 0.70756 0.0989 2.0938 0.0415 2.8525-0.11806zm29.494-70.576v-2.4553h-49.022v4.9107h49.022zm-22.013-11.049v-4.6143h-18.119v9.2287h18.119zm6.7121-9.9695c-0.0171-0.75671-0.0621-2.8341-0.0999-4.6165-0.0379-1.7824-0.091-3.2627-0.11797-3.2897-0.0544-0.05441-18.182-0.19017-26.243-0.19654l-5.1435-0.0041v9.4827h31.635z" fill="#fff"/></g></svg>
