<?xml version="1.0" encoding="UTF-8"?>
<!-- Created with Inkscape (http://www.inkscape.org/) -->
<svg width="98.869mm" height="37.508mm" version="1.1" viewBox="0 0 98.869 37.508" xml:space="preserve" xmlns="http://www.w3.org/2000/svg"><g transform="translate(-24.544 -114.08)" fill="#fff"><path d="m38.113 119.27a13.569 13.569 0 0 0-13.569 13.569 13.569 13.569 0 0 0 13.569 13.569 13.569 13.569 0 0 0 13.569-13.569 13.569 13.569 0 0 0-13.569-13.569zm0 1.0501a12.518 12.518 0 0 1 12.519 12.519 12.518 12.518 0 0 1-12.519 12.519 12.518 12.518 0 0 1-12.519-12.519 12.518 12.518 0 0 1 12.519-12.519z" stroke-width=".26458"/><path d="m73.979 114.08a18.754 18.754 0 0 0-18.754 18.754 18.754 18.754 0 0 0 18.754 18.754 18.754 18.754 0 0 0 18.754-18.754 18.754 18.754 0 0 0-18.754-18.754zm0 1.4514a17.303 17.303 0 0 1 17.303 17.303 17.303 17.303 0 0 1-17.303 17.303 17.303 17.303 0 0 1-17.303-17.303 17.303 17.303 0 0 1 17.303-17.303z" stroke-width=".3657"/><path d="m109.84 119.27a13.569 13.569 0 0 0-13.569 13.569 13.569 13.569 0 0 0 13.569 13.569 13.569 13.569 0 0 0 13.569-13.569 13.569 13.569 0 0 0-13.569-13.569zm0 1.0501a12.518 12.518 0 0 1 12.519 12.519 12.518 12.518 0 0 1-12.519 12.519 12.518 12.518 0 0 1-12.519-12.519 12.518 12.518 0 0 1 12.519-12.519z" stroke-width=".26458"/></g></svg>
