<?xml version="1.0" encoding="UTF-8" standalone="no"?>
<!-- Created with Inkscape (http://www.inkscape.org/) -->

<svg
   width="60.648mm"
   height="59.732mm"
   version="1.1"
   viewBox="0 0 60.648 59.732"
   xml:space="preserve"
   id="svg81"
   sodipodi:docname="cohorts2.svg"
   inkscape:version="1.4.2 (f4327f4, 2025-05-13)"
   xmlns:inkscape="http://www.inkscape.org/namespaces/inkscape"
   xmlns:sodipodi="http://sodipodi.sourceforge.net/DTD/sodipodi-0.dtd"
   xmlns:xlink="http://www.w3.org/1999/xlink"
   xmlns="http://www.w3.org/2000/svg"
   xmlns:svg="http://www.w3.org/2000/svg"><sodipodi:namedview
     id="namedview81"
     pagecolor="#ffffff"
     bordercolor="#000000"
     borderopacity="0.25"
     inkscape:showpageshadow="2"
     inkscape:pageopacity="0.0"
     inkscape:pagecheckerboard="0"
     inkscape:deskcolor="#d1d1d1"
     inkscape:document-units="mm"
     inkscape:zoom="5.3818516"
     inkscape:cx="114.55165"
     inkscape:cy="112.87937"
     inkscape:window-width="2558"
     inkscape:window-height="1401"
     inkscape:window-x="2546"
     inkscape:window-y="0"
     inkscape:window-maximized="0"
     inkscape:current-layer="g81" /><defs
     id="defs18"><linearGradient
       id="linearGradient100"><stop
         stop-color="#610030"
         stop-opacity=".14768"
         offset="0"
         id="stop99"
         style="stop-color:#610030;stop-opacity:0.20284697;" /><stop
         stop-color="#5e0037"
         stop-opacity=".90295"
         offset="1"
         id="stop100" /></linearGradient><linearGradient
       id="linearGradient97"><stop
         stop-color="#610030"
         stop-opacity=".1519"
         offset="0"
         id="stop1"
         style="stop-color:#610030;stop-opacity:0.59786475;" /><stop
         stop-color="#4d0063"
         stop-opacity=".90295"
         offset="1"
         id="stop2"
         style="stop-color:#4d0063;stop-opacity:1;" /></linearGradient><linearGradient
       id="linearGradient95"><stop
         stop-color="#4f005c"
         stop-opacity=".1519"
         offset="0"
         id="stop3"
         style="stop-color:#4f005c;stop-opacity:0.6014235;" /><stop
         stop-color="#4d0063"
         stop-opacity=".90295"
         offset="1"
         id="stop4"
         style="stop-color:#4d0063;stop-opacity:1;" /></linearGradient><linearGradient
       id="linearGradient93"><stop
         stop-color="#520056"
         stop-opacity=".1519"
         offset="0"
         id="stop5"
         style="stop-color:#520056;stop-opacity:0.6014235;" /><stop
         stop-color="#4f005c"
         stop-opacity=".90295"
         offset="1"
         id="stop6"
         style="stop-color:#4f005c;stop-opacity:1;" /></linearGradient><linearGradient
       id="linearGradient91"><stop
         stop-color="#54004f"
         stop-opacity=".14768"
         offset="0"
         id="stop7"
         style="stop-color:#54004f;stop-opacity:0.6014235;" /><stop
         stop-color="#520056"
         stop-opacity=".90295"
         offset="1"
         id="stop8"
         style="stop-color:#520056;stop-opacity:1;" /></linearGradient><linearGradient
       id="linearGradient89"><stop
         stop-color="#570049"
         stop-opacity=".14768"
         offset="0"
         id="stop9"
         style="stop-color:#570049;stop-opacity:0.6014235;" /><stop
         stop-color="#54004f"
         stop-opacity=".89873"
         offset="1"
         id="stop10"
         style="stop-color:#54004f;stop-opacity:1;" /></linearGradient><linearGradient
       id="linearGradient87"><stop
         stop-color="#590043"
         stop-opacity=".1519"
         offset="0"
         id="stop11"
         style="stop-color:#590043;stop-opacity:0.6049822;" /><stop
         stop-color="#570049"
         stop-opacity=".89804"
         offset="1"
         id="stop12"
         style="stop-color:#570049;stop-opacity:1;" /></linearGradient><linearGradient
       id="linearGradient85"><stop
         stop-color="#5c003c"
         stop-opacity=".1519"
         offset="0"
         id="stop13"
         style="stop-color:#5c003c;stop-opacity:0.59786475;" /><stop
         stop-color="#590043"
         stop-opacity=".89873"
         offset="1"
         id="stop14"
         style="stop-color:#590043;stop-opacity:1;" /></linearGradient><linearGradient
       id="linearGradient83"><stop
         stop-color="#5e0036"
         stop-opacity=".1519"
         offset="0"
         id="stop15"
         style="stop-color:#5e0036;stop-opacity:0.6049822;" /><stop
         stop-color="#5c003c"
         stop-opacity=".89804"
         offset="1"
         id="stop16"
         style="stop-color:#5c003c;stop-opacity:1;" /></linearGradient><linearGradient
       id="linearGradient81"><stop
         stop-color="#610030"
         stop-opacity=".14768"
         offset="0"
         id="stop17"
         style="stop-color:#610030;stop-opacity:0.6049822;" /><stop
         stop-color="#5e0037"
         stop-opacity=".90295"
         offset="1"
         id="stop18"
         style="stop-color:#5e0037;stop-opacity:1;" /></linearGradient><linearGradient
       id="linearGradient82"
       x1="351.62"
       x2="366.99"
       y1="106.26"
       y2="106.26"
       gradientUnits="userSpaceOnUse"
       xlink:href="#linearGradient81" /><linearGradient
       id="linearGradient84"
       x1="367.59"
       x2="383"
       y1="112.87"
       y2="112.87"
       gradientUnits="userSpaceOnUse"
       xlink:href="#linearGradient83" /><linearGradient
       id="linearGradient86"
       x1="374.21"
       x2="389.63"
       y1="128.87"
       y2="128.87"
       gradientUnits="userSpaceOnUse"
       xlink:href="#linearGradient85" /><linearGradient
       id="linearGradient88"
       x1="367.6"
       x2="383"
       y1="144.88"
       y2="144.88"
       gradientUnits="userSpaceOnUse"
       xlink:href="#linearGradient87" /><linearGradient
       id="linearGradient90"
       x1="351.6"
       x2="367.01"
       y1="151.47"
       y2="151.47"
       gradientUnits="userSpaceOnUse"
       xlink:href="#linearGradient89" /><linearGradient
       id="linearGradient92"
       x1="335.61"
       x2="351.01"
       y1="144.88"
       y2="144.88"
       gradientUnits="userSpaceOnUse"
       xlink:href="#linearGradient91" /><linearGradient
       id="linearGradient94"
       x1="328.98"
       x2="344.4"
       y1="128.87"
       y2="128.87"
       gradientUnits="userSpaceOnUse"
       xlink:href="#linearGradient93" /><linearGradient
       id="linearGradient96"
       x1="335.61"
       x2="351.01"
       y1="112.87"
       y2="112.87"
       gradientUnits="userSpaceOnUse"
       xlink:href="#linearGradient95" /><linearGradient
       id="linearGradient98"
       x1="351.59"
       x2="367.02"
       y1="128.87"
       y2="128.87"
       gradientUnits="userSpaceOnUse"
       xlink:href="#linearGradient97" /></defs><g
     transform="translate(-104.97 -98.3)"
     id="g81"><g
       transform="translate(-224.01 -.69139)"
       fill="url(#linearGradient82)"
       id="g24"><path
         d="m363.81 104.84c1.5521-0.7865 2.0548-2.8124 1.0677-4.3026-0.73356-1.1075-2.2787-1.571-3.5673-1.0703-0.58744 0.22828-1.2965 0.88671-1.5568 1.4456l-0.17743 0.381 0.45549 0.10367c0.58959 0.1342 1 0.34799 1.4794 0.77063 0.69171 0.60985 1.1811 1.8514 1.0567 2.6809l-0.054 0.35999 0.44307-0.0805c0.24369-0.0443 0.6276-0.17404 0.85313-0.28832z"
         id="path18" /><path
         d="m356.04 104.86c-0.12586-0.83925 0.35802-2.075 1.0551-2.6945 0.44003-0.39109 1.0814-0.72019 1.5576-0.79916 0.29495-0.0489 0.31897-0.0726 0.27029-0.26654-0.0294-0.11707-0.16534-0.37553-0.30214-0.57436-0.69133-1.0048-1.956-1.4834-3.1339-1.186-3.0627 0.77323-2.9952 5.0878 0.0904 5.7738 0.25612 0.0569 0.47753 0.10673 0.49202 0.11063 0.0145 4e-3 1e-3 -0.15981-0.0293-0.36381z"
         id="path19" /><path
         d="m360.59 107.23c0.55296-0.27054 1.1893-0.92066 1.4467-1.478 0.14852-0.32161 0.18444-0.55605 0.18442-1.2037-3e-5 -0.72151-0.0256-0.85481-0.24819-1.2946-0.30226-0.59715-0.83134-1.1006-1.4725-1.4012-0.40218-0.18853-0.5978-0.22525-1.2002-0.22525-0.60236 0-0.79798 0.0367-1.2002 0.22525-0.64115 0.30056-1.1702 0.80401-1.4725 1.4012-0.22261 0.43978-0.24816 0.57308-0.24819 1.2946-3e-5 0.94473 0.15325 1.3655 0.72223 1.9828 0.6829 0.74085 1.2985 0.99221 2.3348 0.95326 0.53863-0.0202 0.78709-0.075 1.1535-0.2543z"
         id="path20" /><path
         d="m366.75 108.97c0-2.1002-0.0716-2.5974-0.47249-3.2815-0.22311-0.38072-1.1599-1.3083-1.3212-1.3083-0.0499 0-0.24245 0.13705-0.42786 0.30456-0.42874 0.38734-1.0766 0.6882-1.6311 0.75748-0.42689 0.0533-0.43662 0.0611-0.6632 0.5293l-0.22995 0.47516 0.27743 0.21104c0.5118 0.38934 1.0024 0.97779 1.276 1.5304 0.25522 0.51556 0.2732 0.6129 0.3011 1.6298l0.0297 1.0815h2.8617z"
         id="path21" /><path
         d="m354.74 109.82c0.0279-1.0179 0.0457-1.1138 0.30177-1.6298 0.27853-0.56127 0.66829-1.0322 1.231-1.4875l0.31776-0.25709-0.23309-0.47381c-0.22857-0.46463-0.24137-0.47485-0.66119-0.52773-0.55021-0.0693-1.1989-0.37142-1.626-0.75728-0.18541-0.16751-0.37795-0.30456-0.42786-0.30456-0.16136 0-1.0981 0.92761-1.3212 1.3083-0.40092 0.6841-0.47249 1.1812-0.47249 3.2815v1.9295h2.8617z"
         id="path22" /><path
         d="m363.61 111.09c-0.026-2.0636-0.0379-2.2028-0.22194-2.6035-0.29816-0.64909-0.60848-1.0537-1.1111-1.4487l-0.45888-0.36066-0.37404 0.32924c-0.4824 0.42463-0.97159 0.65794-1.6184 0.77187-0.94564 0.16657-2.1078-0.18398-2.7267-0.82245l-0.27306-0.28173-0.37908 0.27124c-0.49685 0.35549-0.89047 0.84314-1.1805 1.4625l-0.23513 0.50209-0.0275 2.1802-0.0275 2.1802h8.6613z"
         id="path23" /></g><g
       transform="translate(-224.01 -.69139)"
       fill="url(#linearGradient84)"
       id="g31"><path
         d="m379.68 111.54c0.92304-0.41703 1.6147-1.4172 1.698-2.4555 0.057-0.70963-0.0982-1.3031-0.49677-1.9-1.0105-1.5132-3.1181-1.7843-4.4469-0.57196-0.44386 0.40493-0.7249 0.78707-0.82647 1.1238-0.0472 0.15645 6e-3 0.19278 0.47718 0.3229 1.0029 0.27725 1.7416 0.89669 2.1634 1.8143 0.18335 0.39881 0.22165 0.60746 0.22525 1.2272l4e-3 0.74674 0.381-0.0544c0.20955-0.0299 0.57899-0.14382 0.82097-0.25315z"
         id="path25" /><path
         d="m372.05 111.18c0.0147-1.5492 1.044-2.8264 2.5507-3.1651l0.44252-0.0995-0.26724-0.50141c-0.31311-0.58745-0.77353-1.0157-1.4221-1.3228-0.38799-0.18367-0.58572-0.22045-1.1853-0.22045-0.5999 0-0.79964 0.0372-1.2002 0.22342-1.966 0.91412-2.4318 3.4219-0.90247 4.8591 0.46773 0.43954 0.70827 0.5859 1.2224 0.74374 0.75403 0.2315 0.7546 0.23111 0.7617-0.51709z"
         id="path26" /><path
         d="m376.54 113.87c0.63727-0.29821 1.1686-0.82368 1.4628-1.4468 0.18864-0.39947 0.21989-0.57999 0.21989-1.27 0-0.75415-0.018-0.83744-0.28779-1.335-0.34432-0.63497-0.79353-1.0608-1.4377-1.3628-0.64222-0.30113-1.7853-0.31902-2.3988-0.0375-1.5472 0.70996-2.2392 2.4779-1.555 3.9725 0.70506 1.54 2.4707 2.1938 3.9966 1.4797z"
         id="path27" /><path
         d="m382.75 115.62c-2e-3 -2.0448-0.0465-2.4331-0.35214-3.0833-0.20295-0.43176-0.95093-1.2824-1.2847-1.461-0.20019-0.10714-0.23893-0.0954-0.53144 0.16146-0.4301 0.37763-1.23 0.74234-1.7784 0.81086-0.24968 0.0312-0.45398 0.0944-0.45398 0.1405s-0.0899 0.26285-0.19987 0.48172l-0.19987 0.39793 0.46917 0.37636c0.50289 0.4034 0.99543 1.0724 1.2433 1.6887 0.10751 0.26736 0.16492 0.69033 0.19248 1.4182l0.0393 1.0372h2.8582z"
         id="path28" /><path
         d="m370.73 116.45c0.0396-1.0317 0.0601-1.1386 0.3197-1.6659 0.20108-0.40842 0.44909-0.72376 0.90167-1.1464l0.62429-0.58303-0.22205-0.47019c-0.22135-0.46869-0.22366-0.47048-0.72698-0.56408-0.60937-0.11333-1.2639-0.42447-1.6386-0.77894-0.19956-0.18879-0.32452-0.24608-0.44994-0.20627-0.31694 0.10059-1.1413 0.99896-1.3965 1.5219l-0.24792 0.508-0.0262 2.2669-0.0262 2.2669 2.8465-0.0464z"
         id="path29" /><path
         d="m379.61 117.74c-0.026-2.1048-0.0376-2.2447-0.22079-2.642-0.27059-0.58691-0.77456-1.2264-1.213-1.5392l-0.37192-0.26535-0.33325 0.28807c-1.2688 1.0968-3.2285 1.0882-4.3711-0.0191l-0.30199-0.29266-0.33301 0.24216c-0.79884 0.58089-1.325 1.408-1.472 2.3136-0.0959 0.59126-0.12279 3.99-0.0322 4.0805 0.031 0.031 1.996 0.0564 4.3666 0.0564h4.3101z"
         id="path30" /></g><g
       transform="translate(-224.01 -.69139)"
       fill="url(#linearGradient96)"
       id="g38"><path
         d="m347.28 111.7c2.2325-0.66297 2.9057-3.475 1.2069-5.0409-0.60977-0.56207-1.2017-0.78983-2.0528-0.78983-0.59961 0-0.79734 0.0368-1.1853 0.22045-0.65031 0.30786-1.1092 0.7356-1.4252 1.3285l-0.27032 0.50719 0.42625 0.0914c0.909 0.19495 1.8132 0.85709 2.1966 1.6085 0.28129 0.55136 0.4523 1.3393 0.39099 1.8014-0.0633 0.47702-0.024 0.4921 0.71297 0.27326z"
         id="path32" /><path
         d="m340.13 111.09c4e-3 -0.61283 0.0424-0.82305 0.22525-1.2208 0.4175-0.90808 1.1521-1.5288 2.1411-1.8092 0.2794-0.0792 0.51976-0.15429 0.53413-0.16684 0.0862-0.0753-0.29348-0.7028-0.65952-1.0898-1.3374-1.4141-3.5736-1.2328-4.6485 0.37686-1.1027 1.6514-0.35301 3.8396 1.5396 4.4935 0.24216 0.0837 0.53553 0.15314 0.65195 0.15437 0.20948 2e-3 0.21171-5e-3 0.216-0.73807z"
         id="path33" /><path
         d="m343.99 114.09c1.6394-0.38587 2.6453-2.0096 2.2384-3.6132-0.2341-0.92255-0.84625-1.6518-1.7249-2.055-0.31412-0.14413-0.5612-0.18332-1.1622-0.1843-0.69301-1e-3 -0.81535 0.0244-1.329 0.27702-0.6272 0.30849-1.1199 0.80346-1.4324 1.4391-0.16285 0.33121-0.1967 0.53651-0.19848 1.2036-2e-3 0.69068 0.0287 0.87016 0.2164 1.2702 0.38431 0.81921 1.1007 1.407 2.0251 1.6615 0.499 0.13738 0.7873 0.13762 1.3672 1e-3z"
         id="path34" /><path
         d="m350.74 115.33-0.0262-2.2648-0.24767-0.508c-0.25471-0.52242-1.0792-1.4211-1.3961-1.5217-0.12138-0.0385-0.2429 0.0117-0.40761 0.16829-0.40409 0.38433-1.0493 0.70487-1.6264 0.808l-0.55559 0.0993-0.46079 0.93233 0.61868 0.57778c0.44754 0.41795 0.69808 0.73715 0.90571 1.1539 0.27059 0.54312 0.28862 0.6343 0.31489 1.5921 0.0153 0.5588 0.0436 1.0636 0.0629 1.1218 0.0261 0.079 0.39108 0.10583 1.4397 0.10583h1.4047z"
         id="path35" /><path
         d="m338.75 116.55c0.0276-0.72783 0.085-1.1508 0.19248-1.4182 0.24783-0.61628 0.74037-1.2853 1.2433-1.6887l0.46917-0.37636-0.19987-0.39793c-0.10993-0.21887-0.19987-0.43564-0.19987-0.48172 0-0.0461-0.2043-0.10931-0.45398-0.1405-0.54838-0.0685-1.3482-0.43323-1.7784-0.81086-0.29251-0.25683-0.33125-0.2686-0.53144-0.16146-0.33376 0.17862-1.0817 1.0293-1.2847 1.461-0.30565 0.65025-0.34999 1.0385-0.35214 3.0833l-2e-3 1.9685h2.8582z"
         id="path36" /><path
         d="m347.69 118.18c0.013-0.95462-0.0163-1.9956-0.0652-2.3134-0.14448-0.93873-0.66219-1.7668-1.4734-2.3567l-0.32965-0.23972-0.37142 0.34237c-1.1526 1.0625-3.0564 1.0468-4.3084-0.0355l-0.33325-0.28807-0.36379 0.26126c-0.47941 0.34429-0.90271 0.87048-1.1851 1.4732-0.22843 0.4875-0.22951 0.49891-0.2568 2.7128l-0.0274 2.2233 8.6908-0.0438z"
         id="path37" /></g><g
       transform="translate(-224.01 -.69139)"
       fill="url(#linearGradient86)"
       id="g45"><path
         d="m386.37 127.47c0.50639-0.25661 1.162-0.94421 1.4078-1.4765 0.1485-0.32154 0.18447-0.55618 0.18452-1.2037 6e-5 -0.75422-0.0179-0.83741-0.28773-1.3351-0.3312-0.61078-0.74486-1.015-1.3813-1.3497-0.39808-0.20938-0.53643-0.23543-1.2519-0.23573-0.87941-3.8e-4 -1.3096 0.13677-1.9045 0.60717-0.31645 0.25023-0.83926 0.96203-0.92484 1.2592-0.0444 0.15401 7e-3 0.18521 0.45442 0.27768 1.0154 0.20972 2.0347 1.1544 2.3343 2.1635 0.0689 0.23195 0.12524 0.68681 0.12524 1.0108v0.5891l0.41673-0.0494c0.2292-0.0272 0.60143-0.14295 0.82718-0.25734z"
         id="path39" /><path
         d="m378.67 127.49c-0.12004-0.89497 0.31854-2.0623 1.0166-2.7057 0.41799-0.38529 1.1013-0.7297 1.629-0.82108l0.34734-0.0601-0.21747-0.43607c-0.26304-0.52743-0.91884-1.1604-1.4624-1.4114-0.32154-0.14849-0.55618-0.18446-1.2037-0.18451-0.70923-6e-5 -0.8613 0.0279-1.2861 0.23651-0.62706 0.30794-1.2691 1.0084-1.51 1.6475-0.24703 0.65525-0.20859 1.7385 0.0819 2.3069 0.45811 0.89642 1.291 1.5395 2.1904 1.6911 0.21829 0.0368 0.41144 0.0714 0.42921 0.0769 0.0178 5e-3 0.0112-0.14756-0.0146-0.34007z"
         id="path40" /><path
         d="m383.2 129.84c0.55564-0.27184 1.1919-0.92174 1.4482-1.4792 0.14717-0.32012 0.1838-0.55906 0.18451-1.2037 7.7e-4 -0.69077-0.0301-0.87008-0.21876-1.27-0.28077-0.59524-0.83887-1.1525-1.4314-1.4291-0.5336-0.24917-1.5224-0.33961-2.0774-0.19002-0.54568 0.14708-1.2381 0.61516-1.5812 1.0688-1.1939 1.5789-0.57632 3.8072 1.2712 4.5863 0.68024 0.28685 1.7223 0.25088 2.4048-0.083z"
         id="path41" /><path
         d="m389.32 131.35v-2.2013l-0.23513-0.50209c-0.28864-0.61633-0.68336-1.1068-1.1723-1.4566l-0.37088-0.26534-0.33324 0.28806c-0.45857 0.3964-1.143 0.71578-1.6733 0.78081-0.4416 0.0542-0.44581 0.0575-0.70774 0.56248l-0.2635 0.508 0.21719 0.1456c0.50005 0.33522 1.0473 0.97614 1.3412 1.5707 0.29215 0.59112 0.31036 0.67738 0.34071 1.6131 0.0176 0.54373 0.0477 1.0372 0.0669 1.0965 0.0267 0.0829 0.35423 0.10254 1.4125 0.0847l1.3777-0.0233z"
         id="path42" /><path
         d="m377.34 132.45c0.0396-1.0308 0.0603-1.139 0.3187-1.6638 0.27119-0.55086 0.8465-1.2332 1.3152-1.5598l0.23694-0.16514-0.22195-0.48481c-0.22738-0.49666-0.23575-0.5024-0.88694-0.60784-0.44416-0.0719-1.1241-0.41486-1.5053-0.75927l-0.33865-0.30595-0.4348 0.34368c-0.48712 0.38505-0.87036 0.86988-1.136 1.4371-0.16469 0.35172-0.18071 0.55525-0.20835 2.6479l-0.0299 2.2669 2.8487-0.0464z"
         id="path43" /><path
         d="m386.23 133.86c0-2.2177-0.06-2.6076-0.51099-3.3174-0.24732-0.38931-0.72581-0.88403-1.0889-1.1259-0.19412-0.12929-0.21821-0.1226-0.55625 0.1544-0.19433 0.15924-0.57927 0.39534-0.85542 0.52466-0.44458 0.2082-0.59906 0.23503-1.3488 0.23428-0.74806-7.6e-4 -0.90126-0.0276-1.3155-0.23046-0.25785-0.12629-0.62909-0.36679-0.82497-0.53446l-0.35614-0.30485-0.23599 0.16804c-0.44442 0.31646-1.0469 1.0349-1.2738 1.5191-0.22555 0.48123-0.22706 0.49745-0.25203 2.7066l-0.0251 2.2225h8.6439z"
         id="path44" /></g><g
       transform="translate(-224.01 -.69139)"
       fill="url(#linearGradient98)"
       id="g52"><path
         d="m363.77 127.47c0.55718-0.28235 1.1045-0.84509 1.3706-1.4091 0.18833-0.39927 0.21965-0.58036 0.21965-1.27 0-0.68331-0.0313-0.86804-0.20829-1.2277-0.29349-0.59652-0.80112-1.1144-1.3973-1.4256-0.46843-0.24447-0.57826-0.26678-1.3154-0.2672-0.96516-5.5e-4 -1.3754 0.15548-2.0377 0.77492-0.3452 0.32289-0.841 1.0554-0.841 1.2425 0 0.0187 0.15689 0.055 0.34863 0.0808 0.53285 0.0715 1.3655 0.52228 1.7648 0.95554 0.56025 0.6078 0.79901 1.2074 0.8362 2.0999l0.0313 0.75158 0.40791-0.0483c0.22435-0.0266 0.59359-0.1424 0.82054-0.2574z"
         id="path46" /><path
         d="m356.1 127.01c0.0253-0.63407 0.0704-0.82577 0.30787-1.3079 0.43807-0.88929 1.4035-1.6152 2.3098-1.7368 0.18313-0.0246 0.33295-0.06 0.33295-0.0787 0-0.18712-0.49579-0.91964-0.84099-1.2425-0.66214-0.61936-1.0725-0.77545-2.0377-0.77503-0.7173 3e-4 -0.85326 0.0261-1.2565 0.23806-0.63732 0.33509-1.1564 0.8435-1.43 1.4005-0.20633 0.42016-0.23456 0.57447-0.23456 1.282 0 0.68964 0.0313 0.87073 0.21965 1.27 0.43641 0.92519 1.4562 1.6621 2.3331 1.686l0.26674 7e-3z"
         id="path47" /><path
         d="m360.6 129.84c0.61739-0.30206 1.2612-1.0065 1.5009-1.6422 0.26109-0.69253 0.20959-1.7367-0.11704-2.3733-0.29007-0.56533-0.76929-1.0468-1.3427-1.3489-0.40708-0.21449-0.52751-0.23573-1.3364-0.23573-0.80888 0-0.92931 0.0212-1.3364 0.23573-0.57342 0.30213-1.0526 0.78355-1.3427 1.3489-0.32578 0.63492-0.37807 1.6809-0.11847 2.3695 0.30442 0.80742 1.076 1.5462 1.8937 1.8133 0.58172 0.19001 1.6321 0.11009 2.1991-0.16734z"
         id="path48" /><path
         d="m366.74 131.33-0.0275-2.1802-0.23513-0.50209c-0.29171-0.62289-0.72216-1.1559-1.1977-1.4831l-0.36375-0.25026-0.24181 0.25239c-0.29001 0.3027-1.1204 0.73208-1.5482 0.8005-0.64743 0.10357-0.66461 0.11469-0.89038 0.57614-0.12215 0.24967-0.22209 0.47164-0.22209 0.49327 0 0.0216 0.17514 0.17023 0.3892 0.33023 0.99964 0.74717 1.4735 1.7965 1.4735 3.2632v0.88008h2.8913z"
         id="path49" /><path
         d="m354.73 132.63c0-1.4666 0.47382-2.516 1.4735-3.2632 0.21406-0.16 0.38904-0.3124 0.38885-0.33867-8.4e-4 -0.11224-0.4348-0.8919-0.53016-0.95247-0.0575-0.0365-0.20783-0.0669-0.33415-0.0677-0.39534-2e-3 -1.1643-0.34286-1.6296-0.72188l-0.44686-0.36397-0.45559 0.35807c-0.49948 0.39257-0.81009 0.79805-1.1078 1.4462-0.18418 0.40095-0.19585 0.53859-0.22083 2.6035l-0.0264 2.1802h2.8891z"
         id="path50" /><path
         d="m363.61 133.66c-0.026-2.1983-0.0287-2.2277-0.2494-2.6983-0.23973-0.51126-0.66237-1.024-1.1856-1.4385l-0.32632-0.25844-0.35699 0.30557c-0.19634 0.16806-0.56796 0.40928-0.82581 0.53603-0.41996 0.20644-0.56149 0.23046-1.3578 0.23046-0.79633 0-0.93786-0.024-1.3578-0.23046-0.25785-0.12675-0.62483-0.364-0.8155-0.52721l-0.34668-0.29674-0.3275 0.23816c-0.49609 0.36077-0.95688 0.91182-1.205 1.4411-0.22068 0.47065-0.2234 0.50004-0.2494 2.6983l-0.0263 2.2225h8.6565z"
         id="path51" /></g><g
       transform="translate(-224.01 -.69139)"
       fill="url(#linearGradient94)"
       id="g59"><path
         d="m340.87 127.61c1.0095-0.35072 1.7741-1.3004 1.9218-2.3869 0.13442-0.98907-0.19103-1.9014-0.9222-2.5854-0.6619-0.61914-1.0725-0.77538-2.0377-0.77538s-1.3758 0.15624-2.0377 0.77538c-0.34654 0.32414-0.84099 1.0556-0.84099 1.2441 0 0.0195 0.16218 0.0598 0.36041 0.0896 0.92429 0.13861 1.8431 0.83272 2.2823 1.7242 0.24155 0.49027 0.28212 0.66759 0.30739 1.3436l0.0291 0.77878 0.30956-0.0487c0.17025-0.0268 0.45284-0.0984 0.62798-0.1593z"
         id="path53" /><path
         d="m333.48 127.2c0-0.77387 0.20053-1.3957 0.64563-2.002 0.4069-0.5543 1.1719-1.0527 1.8218-1.187 0.44115-0.0911 0.49079-0.12193 0.44486-0.27607-0.1071-0.35935-0.5799-0.99933-0.94326-1.2768-0.61991-0.47334-1.2168-0.65473-2.0205-0.61407-0.85939 0.0435-1.4539 0.31356-2.0182 0.91682-0.60776 0.64974-0.76467 1.0654-0.76574 2.0282-7.6e-4 0.69077 0.0301 0.87007 0.21876 1.27 0.4524 0.95907 1.3721 1.5962 2.5532 1.7687 0.0349 5e-3 0.0635-0.27743 0.0635-0.62784z"
         id="path54" /><path
         d="m337.99 129.85c0.88998-0.4147 1.5014-1.2294 1.6921-2.2548 0.0787-0.42323 0.0706-0.60761-0.0477-1.0871-0.35725-1.4477-1.5085-2.347-2.9922-2.3374-1.0895 7e-3 -2.1049 0.64663-2.6199 1.6503-0.3312 0.64548-0.37839 1.6797-0.10926 2.3947 0.25401 0.67483 1.0257 1.4621 1.6877 1.7217 0.67349 0.26412 1.7169 0.22598 2.3893-0.0873z"
         id="path55" /><path
         d="m344.13 131.33c-0.026-2.2445-0.0282-2.269-0.2485-2.7305-0.25727-0.53896-0.72604-1.1046-1.2-1.4479l-0.33159-0.2402-0.39308 0.33145c-0.48126 0.4058-1.0921 0.68467-1.6516 0.75407-0.40865 0.0507-0.42839 0.0661-0.66085 0.51623-0.13178 0.2552-0.23961 0.48624-0.23961 0.51343 0 0.0272 0.17514 0.18035 0.3892 0.34035 0.9958 0.74429 1.4735 1.7976 1.4735 3.249 0 0.47628 0.0254 0.89137 0.0564 0.92241 0.031 0.031 0.68102 0.0565 1.4444 0.0565h1.3879z"
         id="path56" /><path
         d="m332.14 132.51c0.0314-0.99557 0.0546-1.1235 0.29911-1.645 0.27637-0.58959 0.78547-1.2103 1.3011-1.5863l0.30189-0.22014-0.24589-0.52851c-0.22722-0.4884-0.26664-0.52851-0.51935-0.52851-0.49845 0-1.1435-0.25518-1.6893-0.66833l-0.53893-0.40792-0.37745 0.27392c-0.47894 0.34756-0.85577 0.82308-1.15 1.4512-0.23114 0.49339-0.23152 0.49735-0.25777 2.7166l-0.0263 2.2225h2.8689z"
         id="path57" /><path
         d="m341 133.61-0.0262-2.2648-0.22953-0.44489c-0.30518-0.59151-0.61313-0.96664-1.0954-1.3345l-0.39874-0.30407-0.4928 0.37964c-0.68491 0.52763-1.4082 0.75853-2.2285 0.71146-0.75963-0.0436-1.5317-0.35683-1.9544-0.79294-0.15409-0.15898-0.32845-0.28906-0.38746-0.28906-0.059 0-0.3559 0.23256-0.65975 0.51679-0.38065 0.35608-0.63833 0.69112-0.8286 1.0773l-0.27614 0.56055-0.0526 4.4493h8.6564z"
         id="path58" /></g><g
       transform="translate(-224.01 -.69139)"
       fill="url(#linearGradient88)"
       id="g66"><path
         d="m379.76 143.41c0.6123-0.29783 1.0645-0.76746 1.3735-1.4265 0.18638-0.39749 0.22305-0.59431 0.22272-1.1955-3.4e-4 -0.61477-0.0362-0.7973-0.24597-1.2523-0.83147-1.8035-3.2209-2.3111-4.6846-0.9951-0.38605 0.3471-0.93763 1.1908-0.8414 1.287 0.0243 0.0243 0.20108 0.0794 0.3929 0.1225 0.94688 0.21275 1.8643 0.95367 2.2674 1.8312 0.17292 0.37645 0.2327 0.66026 0.26081 1.2383l0.0365 0.74993 0.34904-0.0533c0.19197-0.0293 0.58307-0.16712 0.8691-0.30625z"
         id="path60" /><path
         d="m372.03 143.35c-0.0544-0.45895 0.12391-1.2658 0.39865-1.8044 0.0973-0.19077 0.34694-0.51685 0.55471-0.72462 0.37896-0.37896 1.2833-0.87479 1.6002-0.87734 0.36322-3e-3 0.42622-0.12486 0.25765-0.49867-0.34666-0.76876-1.2933-1.4598-2.1929-1.6009-2.9092-0.4562-4.6724 3.0753-2.5341 5.0755 0.5722 0.53523 1.158 0.81538 1.7349 0.82965 0.22402 6e-3 0.22783-3e-3 0.18089-0.39925z"
         id="path61" /><path
         d="m376.17 145.95c2.3958-0.75567 2.8608-3.9789 0.76785-5.322-1.5588-1.0002-3.6218-0.3934-4.3902 1.2914-0.33653 0.7379-0.33758 1.6554-3e-3 2.38 0.66039 1.4291 2.161 2.1124 3.6251 1.6506z"
         id="path62" /><path
         d="m382.76 147.61c0-2.0091-0.0651-2.55-0.38271-3.1792-0.24178-0.47899-0.80149-1.1185-1.188-1.3574l-0.29582-0.18282-0.34774 0.31416c-0.4351 0.39309-1.1156 0.70926-1.6671 0.77458-0.41714 0.0494-0.42654 0.0571-0.66858 0.5454l-0.24549 0.4953 0.4756 0.36934c0.26159 0.20313 0.61034 0.57538 0.77502 0.82721 0.50695 0.77525 0.60402 1.1137 0.64731 2.257l0.0393 1.0372h2.8582z"
         id="path63" /><path
         d="m370.65 148.94c3e-3 -0.8792 0.14604-1.6793 0.39575-2.2071 0.21302-0.45029 1.0616-1.4157 1.4023-1.5953 0.13857-0.0731 0.13317-0.11368-0.079-0.59366l-0.22772-0.51522-0.44037-0.0454c-0.53797-0.0555-1.234-0.37447-1.7142-0.78544l-0.35881-0.30712-0.27309 0.20829c-0.52146 0.39774-0.91756 0.86987-1.1872 1.4151l-0.27111 0.54819-0.0251 2.2246-0.0251 2.2246h2.8019z"
         id="path64" /><path
         d="m379.62 149.91c0-2.1456-0.0698-2.6367-0.47249-3.3238-0.23564-0.40209-1.1635-1.3083-1.3395-1.3083-0.06 0-0.17762 0.0758-0.26142 0.16836-0.28591 0.31593-0.93706 0.67221-1.4852 0.81264-1.0131 0.25954-2.0811 6e-3 -2.9404-0.69822l-0.37256-0.30529-0.34877 0.24513c-0.49417 0.34731-1.0286 1.0354-1.2372 1.593-0.16425 0.43899-0.17839 0.64762-0.17839 2.6326v2.1558h8.636z"
         id="path65" /></g><g
       transform="translate(-224.01 -.69139)"
       fill="url(#linearGradient92)"
       id="g73"><path
         d="m347.65 143.51c0.51475-0.22065 1.2057-0.87028 1.4606-1.3732 0.39503-0.77954 0.41176-1.8371 0.0415-2.6248-0.27696-0.58921-0.69433-1.0255-1.29-1.3485-0.5133-0.2783-0.57261-0.2904-1.4246-0.2904-0.79822 0-0.93223 0.0229-1.3123 0.22402-0.51821 0.27421-1.0644 0.81447-1.3272 1.3128-0.17045 0.32318-0.17977 0.38386-0.0697 0.45398 0.0698 0.0445 0.2032 0.0815 0.29633 0.0823 0.31712 3e-3 1.2214 0.4985 1.6009 0.878 0.65873 0.65872 1.0616 1.7544 0.94847 2.5797l-0.0516 0.37653 0.36508-0.05c0.20079-0.0275 0.54402-0.12674 0.76271-0.22048z"
         id="path67" /><path
         d="m340.1 143.01c0.0274-0.56286 0.0886-0.85514 0.25464-1.2167 0.40911-0.89055 1.2036-1.5619 2.1355-1.8046 0.27435-0.0715 0.51587-0.14699 0.53672-0.16784 0.0209-0.0208-0.0692-0.23473-0.20013-0.47529-1.1592-2.1298-4.3132-2.0177-5.3324 0.1896-0.212 0.45911-0.24547 0.63207-0.24234 1.2523 3e-3 0.5533 0.0464 0.8142 0.18872 1.1286 0.37435 0.82704 0.98281 1.3869 1.8227 1.6771 0.78862 0.27249 0.79521 0.2679 0.83661-0.58318z"
         id="path68" /><path
         d="m344.53 145.84c1.2524-0.57334 1.9853-1.9332 1.7348-3.2186-0.33676-1.7283-1.9834-2.8068-3.6449-2.3873-2.978 0.7519-3.0352 4.9339-0.0788 5.7619 0.61537 0.17236 1.4072 0.11023 1.9888-0.15604z"
         id="path69" /><path
         d="m350.74 147.29-0.0263-2.2247-0.27111-0.54817c-0.26964-0.54519-0.66575-1.0173-1.1872-1.4151l-0.27309-0.20829-0.35881 0.30712c-0.47732 0.40857-1.1746 0.72944-1.7085 0.7862-0.4338 0.0461-0.43511 0.0472-0.65584 0.52826l-0.22117 0.48205 0.61909 0.56742c0.95834 0.87835 1.3026 1.759 1.3043 3.336l6.4e-4 0.61383h2.8042z"
         id="path70" /><path
         d="m338.75 148.47c0.0296-0.77987 0.0831-1.1488 0.21582-1.4871 0.23347-0.59526 0.75613-1.2754 1.27-1.6526l0.41619-0.30551-0.24757-0.49949c-0.24438-0.49304-0.25304-0.50014-0.67066-0.5496-0.55273-0.0655-1.2322-0.3817-1.6701-0.77728l-0.35072-0.31684-0.34563 0.23952c-0.73046 0.50621-1.2625 1.3263-1.4227 2.1928-0.0507 0.27444-0.0922 1.3302-0.0922 2.3461v1.8471h2.8582z"
         id="path71" /><path
         d="m347.6 149.62-0.0262-2.2648-0.23372-0.47592c-0.27454-0.55903-0.79452-1.175-1.2072-1.4301l-0.29302-0.1811-0.36661 0.30041c-0.85325 0.69918-1.9241 0.95218-2.9344 0.69334-0.54815-0.14043-1.1993-0.49671-1.4852-0.81264-0.0838-0.0926-0.20054-0.16836-0.25942-0.16836-0.17192 0-1.0127 0.81285-1.2936 1.2507-0.44579 0.69469-0.52038 1.1794-0.52038 3.3814v1.9719h8.6461z"
         id="path72" /></g><g
       transform="translate(-224.01 -.69139)"
       fill="url(#linearGradient90)"
       id="g80"><path
         d="m363.68 150.06c0.57136-0.25629 1.1671-0.85839 1.4488-1.4642 0.18651-0.40115 0.22455-0.60371 0.22608-1.2038 2e-3 -0.64529-0.0273-0.78062-0.27416-1.282-0.3212-0.65245-0.78019-1.1002-1.4495-1.414-0.40878-0.19168-0.58321-0.2222-1.2378-0.21661-0.88598 8e-3 -1.3383 0.16983-1.9124 0.68607-0.36476 0.32798-0.83925 0.99321-0.83925 1.1766 0 0.0552 0.17612 0.14472 0.39138 0.19892 0.96121 0.24204 1.8206 0.91706 2.1946 1.7238 0.26482 0.57126 0.40669 1.2657 0.35404 1.7328l-0.0418 0.37116 0.35009-0.0557c0.19255-0.0306 0.54807-0.14449 0.79005-0.25303z"
         id="path74" /><path
         d="m356.03 150.02c-0.0605-0.45103 0.11308-1.2954 0.37087-1.8042 0.40158-0.79248 1.2415-1.438 2.1779-1.6738 0.21526-0.0542 0.39138-0.14372 0.39138-0.19892 0-0.1601-0.45988-0.82863-0.77216-1.1225-0.1574-0.14812-0.49573-0.37569-0.75184-0.50572-0.40568-0.20597-0.56382-0.23672-1.2277-0.23871-0.64931-2e-3 -0.83236 0.0307-1.2378 0.22084-0.66932 0.31383-1.1283 0.7616-1.4495 1.414-0.24625 0.50019-0.27599 0.63854-0.27599 1.2838 0 0.64675 0.0295 0.78311 0.27872 1.2894 0.39308 0.79845 1.1159 1.3871 1.9425 1.5818 0.58524 0.13788 0.60405 0.12951 0.55367-0.24615z"
         id="path75" /><path
         d="m360.32 152.51c1.5926-0.52673 2.4083-2.5185 1.6588-4.0504-0.87051-1.7793-3.2546-2.2233-4.6831-0.87225-0.24543 0.23211-0.55119 0.63575-0.67948 0.89696-0.20208 0.4115-0.23323 0.57672-0.23323 1.2369 0 0.64889 0.0335 0.83359 0.22607 1.2443 0.65914 1.4062 2.1956 2.0457 3.7109 1.5445z"
         id="path76" /><path
         d="m366.74 153.98c-0.0294-1.941-0.049-2.1792-0.21307-2.5878-0.23638-0.5887-0.75168-1.2606-1.2268-1.5996l-0.38057-0.27154-0.23331 0.24352c-0.33459 0.34925-1.1054 0.73409-1.704 0.85077-0.51296 0.1-0.51682 0.10294-0.74696 0.57218-0.21865 0.44581-0.22287 0.47616-0.077 0.55323 0.34258 0.18104 1.1933 1.1448 1.4044 1.591 0.25996 0.54952 0.39939 1.3061 0.40029 2.1722l6.4e-4 0.61383h2.809z"
         id="path77" /><path
         d="m354.65 155.5c9e-4 -0.86608 0.14033-1.6227 0.40029-2.1722 0.2111-0.44623 1.0618-1.41 1.4044-1.591 0.14583-0.0771 0.14161-0.10742-0.077-0.55323-0.23014-0.46924-0.234-0.4722-0.74696-0.57218-0.59863-0.11668-1.3695-0.50152-1.704-0.85077l-0.23331-0.24352-0.38057 0.27154c-0.47515 0.33904-0.99045 1.0109-1.2268 1.5996-0.16403 0.40852-0.18365 0.64672-0.21307 2.5878l-0.0324 2.1378h2.809z"
         id="path78" /><path
         d="m363.61 156.31-0.0275-2.1802-0.26269-0.55434c-0.29267-0.61761-0.67422-1.0916-1.1655-1.4479l-0.3275-0.23751-0.34726 0.29724c-0.19099 0.16348-0.55797 0.40073-0.8155 0.52721-0.41913 0.20584-0.56149 0.22996-1.3572 0.22996-0.79575 0-0.93811-0.0241-1.3572-0.22996-0.25753-0.12648-0.62451-0.36373-0.8155-0.52721l-0.34726-0.29724-0.3275 0.23751c-0.49125 0.35627-0.8728 0.83028-1.1655 1.4479l-0.26269 0.55434-0.055 4.3603h8.6613z"
         id="path79" /></g></g></svg>
