<?xml version="1.0" encoding="UTF-8"?>
<!-- Created with Inkscape (http://www.inkscape.org/) -->
<svg width="100.41mm" height="76.877mm" version="1.1" viewBox="0 0 100.41 76.877" xml:space="preserve" xmlns="http://www.w3.org/2000/svg"><g transform="translate(-54.832 -109.99)"><path d="m54.832 148.43v-38.439h3.048v73.829h97.367v3.048h-100.41zm88.825 33.479c-1.5866-0.4267-2.9861-1.8969-3.3154-3.483-0.0585-0.28169-0.0855-0.86202-0.0642-1.3792l0.0368-0.89287-5.9633-4.231c-3.2798-2.3271-6.072-4.3007-6.2049-4.3859l-0.24154-0.15489-0.50019 0.30873c-0.76334 0.47116-1.4322 0.65353-2.4258 0.66145-1.3274 0.0106-2.3135-0.36782-3.251-1.2476-0.97108-0.91121-1.4686-2.0792-1.4631-3.4345 2e-3 -0.44238 0.0566-0.97603 0.12171-1.1859l0.11842-0.38155-6.0876-4.3174c-3.3482-2.3746-6.1751-4.3708-6.282-4.4361-0.17603-0.10746-0.22187-0.0977-0.48509 0.10305-0.90527 0.69049-2.4497 0.99169-3.728 0.72707-0.69375-0.14361-1.5815-0.60828-2.1553-1.1282-0.28672-0.25976-0.54224-0.4723-0.5678-0.4723-0.0256 0-2.6613 1.4529-5.8572 3.2286l-5.8107 3.2286 0.05388 0.28721c0.08766 0.46725 0.06158 1.6664-0.04594 2.1125-0.52653 2.1844-2.661 3.735-4.9033 3.5621-2.1421-0.16519-3.8383-1.6624-4.2856-3.7829-0.20933-0.99232-0.11722-1.6901 0.41446-3.1399 0.02616-0.0713-3.3342-3.8874-3.4231-3.8874-0.04087 0-1.7979 1.2231-3.9045 2.718l-3.8302 2.718 0.03088 0.91741c0.03652 1.085-0.06105 1.5807-0.48262 2.452-0.57484 1.188-1.8481 2.1838-3.1296 2.4476-1.6517 0.34005-3.2157-0.12197-4.3844-1.2952-1.471-1.4767-1.792-3.5792-0.83636-5.4769 0.76177-1.5127 2.4417-2.5266 4.1953-2.532 0.60416-2e-3 1.6574 0.26673 2.2212 0.56646 0.241 0.12812 0.73117 0.52209 1.0893 0.87548l0.65106 0.64253 7.3792-5.2329-0.192-0.22716c-0.1056-0.12494-2.1488-2.4483-4.5404-5.163-3.3411-3.7924-4.3806-4.9225-4.4873-4.8783-0.73247 0.30341-1.1597 0.40381-1.8749 0.44065-1.4942 0.077-2.5728-0.33022-3.5958-1.3575-1.4847-1.4909-1.809-3.6286-0.83472-5.5015 0.78553-1.51 2.4505-2.5114 4.1845-2.5168 0.60764-2e-3 1.6613 0.26794 2.2187 0.56818 0.67936 0.36593 1.517 1.2061 1.8675 1.873 0.40368 0.76821 0.56306 1.4193 0.56184 2.2953-0.0015 1.0725-0.23688 1.8308-0.84482 2.7214l-0.33663 0.49316 4.5334 5.1466c2.4933 2.8306 4.5679 5.1466 4.6101 5.1466 0.04223 0 0.8153-0.5222 1.718-1.1604l1.6412-1.1604-0.24219-0.49055c-0.26947-0.54579-0.49168-1.4754-0.49168-2.0569 0-1.0815 0.53704-2.4354 1.2714-3.2054 0.95222-0.99834 2.0971-1.4886 3.467-1.4845 1.3488 4e-3 2.3296 0.40116 3.2795 1.328l0.44314 0.43241 0.2342-0.17129c0.12881-0.0942 2.8631-2.0327 6.0762-4.3078 3.2131-2.2751 5.8571-4.148 5.8755-4.1619 0.0184-0.0139-0.0641-0.2452-0.18352-0.51392-0.33297-0.74957-0.42477-1.1828-0.42646-2.0126-3e-3 -1.3273 0.44283-2.4064 1.3808-3.3443 0.97137-0.97137 2.1442-1.4103 3.556-1.3309 2.0404 0.11484 3.6214 1.3368 4.2416 3.2782 0.21291 0.66655 0.24109 2.03 0.0543 2.6282l-0.12005 0.38457 11.605 6.4335 0.59763-0.60588c0.96242-0.97571 1.9975-1.4042 3.3851-1.4014 1.1186 2e-3 2.2865 0.41136 2.9823 1.0445l0.18173 0.1654 6.5493-7.4315c3.6021-4.0873 6.5961-7.496 6.6533-7.5748 0.0871-0.11991 0.0624-0.1957-0.15125-0.46454-0.34067-0.42868-0.71636-1.2398-0.84371-1.8216-0.15003-0.6854-0.0705-2.0286 0.15719-2.6562 0.66478-1.8322 2.4614-3.088 4.4243-3.0924 0.72085-2e-3 1.7453 0.26271 2.3506 0.60651 1.3961 0.79295 2.3802 2.4845 2.3802 4.0912 0 2.196-1.6486 4.206-3.7888 4.6194-0.78707 0.15203-1.8777 0.0621-2.6172-0.21572l-0.60929-0.22892-0.24949 0.28329c-0.13721 0.15581-3.1824 3.613-6.767 7.6825l-6.5176 7.3992 0.19771 0.48657c1.0349 2.5469-0.34625 5.4716-2.9675 6.2839-0.82824 0.25666-2.0662 0.2502-2.8398-0.0148-0.73207-0.25076-1.2173-0.54124-1.7694-1.0593-0.59557-0.55885-0.96944-1.1498-1.243-1.9648-0.21415-0.63795-0.26083-1.2947-0.17894-2.5177 0.0159-0.23807-0.11652-0.31736-5.8152-3.4809l-5.8315-3.2373-0.28776 0.31852c-0.39119 0.43299-1.2265 0.96005-1.8922 1.194-0.44935 0.15789-0.72901 0.19357-1.524 0.19447-0.83718 9.4e-4 -1.0586-0.0297-1.5799-0.21838-0.33343-0.12072-0.78745-0.34178-1.0089-0.49126-0.28605-0.19305-0.44507-0.25145-0.54899-0.20162-0.0805 0.0386-2.9068 2.0296-6.2807 4.4246l-6.1344 4.3544 0.1174 0.3869c0.17858 0.58854 0.1515 1.889-0.05305 2.5478-0.36449 1.1739-1.2654 2.2742-2.2824 2.7876-1.5006 0.75748-3.3044 0.70561-4.6888-0.13485-0.26884-0.1632-0.52182-0.28433-0.56217-0.26917-0.17662 0.0664-3.3022 2.319-3.2855 2.368 0.01017 0.0299 0.68524 0.80729 1.5002 1.7275 0.81492 0.92018 1.5067 1.7113 1.5373 1.7581 0.0328 0.0502 0.18901-0.02 0.381-0.17124 0.7981-0.62865 1.788-0.95577 2.8921-0.95577 1.3715 0 2.3942 0.42734 3.3689 1.4077l0.60161 0.60509 11.599-6.4438-0.12226-0.388c-0.17657-0.5603-0.16949-1.8809 0.0134-2.5047 0.48085-1.6397 1.8112-2.9138 3.4447-3.2988 2.4426-0.57578 4.9281 0.88074 5.6256 3.2967 0.17171 0.59474 0.19331 1.8482 0.0416 2.4151-0.0561 0.20955-0.19961 0.60087-0.31898 0.8696-0.11938 0.26872-0.20196 0.50182-0.18353 0.51799 0.0683 0.0599 11.976 8.4892 12.08 8.5516 0.0701 0.0419 0.28987-0.10311 0.62155-0.41019 0.88787-0.82201 1.9423-1.2395 3.1531-1.2484 0.39037-3e-3 0.91461 0.0422 1.165 0.1001 1.5402 0.35641 2.9274 1.6522 3.3967 3.1728 0.34668 1.1233 0.21363 2.6199-0.31847 3.5822l-0.19982 0.36136 2.0057 1.4252c1.1032 0.78387 3.8117 2.7064 6.0191 4.2724l4.0133 2.8472 0.49373-0.53882c0.59069-0.64463 1.1412-1.0132 1.9136-1.2811 2.6954-0.93486 5.5756 0.68958 6.1603 3.4744 0.15703 0.74793 0.1569 1.2007-5.5e-4 1.9473-0.17177 0.81452-0.5571 1.558-1.1272 2.1749-0.95681 1.0354-2.0539 1.5119-3.4588 1.5025-0.45745-3e-3 -1.037-0.0608-1.2879-0.12825z" fill="#fff"/></g></svg>
