<?xml version="1.0" encoding="UTF-8" standalone="no"?>
<!-- Created with Inkscape (http://www.inkscape.org/) -->

<svg
   version="1.1"
   id="svg1"
   width="553.20001"
   height="550.79999"
   viewBox="0 0 553.20001 550.79999"
   xmlns="http://www.w3.org/2000/svg"
   xmlns:svg="http://www.w3.org/2000/svg">
  <defs
     id="defs1" />
  <g
     id="g1">
    <path
       style="fill:#ffffff;fill-opacity:1"
       d="m 490.80001,547.56046 c -4.422,-1.73554 -8.634,-3.45953 -9.36,-3.83109 -5.80199,-2.96942 -13.54023,-9.90953 -39.32324,-35.26743 -10.25524,-10.08615 -78.4047,-77.30525 -86.31988,-85.14145 l -5.76311,-5.70562 -1.45886,0.92242 C 301.18696,448.50003 244.71648,459.93294 189.6,450.72306 130.32806,440.81881 77.586868,407.95644 42.498696,359.0661 28.107798,339.01444 16.87983,316.17609 9.7078177,292.3675 -4.3442654,245.71946 -3.0090261,195.85145 13.519773,150 23.353537,122.7208 38.009134,98.088293 57.571329,75.959998 61.126114,71.938908 71.938912,61.126112 75.960002,57.571326 84.341298,50.161965 92.103752,44.178988 101.15326,38.153411 157.42506,0.68506119 227.35191,-9.7741634 292.05239,9.599904 c 20.33467,6.089062 40.4976,15.382046 57.98762,26.726169 26.21544,17.003485 48.30398,38.739646 65.51913,64.473927 21.17215,31.64944 34.00014,68.01148 37.42346,106.08 1.19459,13.28429 1.10532,29.21157 -0.23945,42.71999 -3.2294,32.43989 -13.73857,64.53318 -30.32731,92.6147 l -1.47371,2.4947 8.1152,8.1853 c 11.46903,11.56809 77.67095,78.68052 85.02575,86.19515 29.50019,30.14125 36.22374,38.72216 38.40295,49.01162 0.64524,3.04657 0.8926,10.78694 0.49658,15.53853 -1.4965,17.95554 -11.19696,32.09995 -27.7426,40.45196 -6.72118,3.39276 -12.7893,4.64741 -21.76981,4.50116 l -4.48982,-0.0731 -0.0702,1.098 -0.0702,1.09801 z m 16.9994,-32.66104 c 2.36306,-0.5978 5.2046,-2.15849 6.98099,-3.83425 2.93557,-2.76926 3.83645,-5.37728 3.84982,-11.14518 0.007,-2.85745 -0.41224,-6.58573 -0.94374,-8.4 -0.28658,-0.97824 -1.81601,-2.68125 -11.74407,-13.07695 -15.27276,-15.99217 -40.88127,-42.01135 -83.26776,-84.60305 l -21.3765,-21.48 -0.78907,0.85673 c -0.43399,0.47119 -2.24707,2.52319 -4.02907,4.56 -3.60423,4.11958 -12.91451,13.55763 -16.8,17.03055 -1.386,1.23883 -2.55075,2.32223 -2.58833,2.40755 -0.11677,0.26512 70.31658,69.87216 88.27277,87.23716 19.30937,18.67364 30.02417,28.66403 31.59449,29.45843 3.00925,1.52234 7.21534,1.90608 10.84047,0.98901 z M 233.34451,414.23753 c 11.06556,-0.41698 19.93542,-1.44094 30.23433,-3.49032 60.70348,-12.0794 111.59179,-53.44557 135.86787,-110.44449 13.1176,-30.79941 17.74397,-64.77014 13.33769,-97.93666 C 408.93484,173.39008 398.29234,145.51991 381.88198,121.44 371.78929,106.63038 358.97209,92.699465 345.07729,81.437262 317.96371,59.460797 285.7501,45.647998 250.92001,41.063791 c -8.42093,-1.108331 -12.47357,-1.336967 -23.76,-1.340454 -12.2938,-0.0038 -16.22894,0.246505 -26.56491,1.689727 C 173.06432,45.257212 146.34945,55.468329 122.88,71.117791 80.773772,99.194283 51.710694,143.38777 42.604751,193.1848 c -2.336029,12.77488 -3.144567,22.93151 -2.931074,36.81934 0.164059,10.67208 0.707133,17.16081 2.232635,26.67585 8.22598,51.30805 37.690977,97.24031 80.853688,126.04082 28.81636,19.22784 62.79667,30.27037 96.96,31.50893 7.14018,0.25886 6.9645,0.25876 13.62451,0.008 z M 77.040002,227.03999 V 144.96 h 38.125148 c 23.58924,0 39.30512,0.0928 41.22,0.2435 18.77283,1.47707 32.32581,6.80679 42.1016,16.5565 5.45134,5.43679 9.20019,11.83421 11.39173,19.44 3.22769,11.20174 2.92097,26.246 -0.75278,36.92278 -5.7584,16.73533 -19.74519,27.80688 -40.33793,31.9304 -8.39884,1.68179 -12.80815,1.94154 -33.00777,1.94444 l -16.5,0.002 v 28.56 28.56 h -21.119998 -21.12 z m 72.401188,-6.08017 c 10.70762,-1.92521 17.02414,-7.84152 18.70936,-17.5239 0.52583,-3.02112 0.33795,-9.05495 -0.36966,-11.87222 -1.82797,-7.27785 -6.8982,-12.44975 -14.38196,-14.67037 -4.12897,-1.22517 -4.79732,-1.27166 -19.89893,-1.38409 l -14.22,-0.10586 v 23.07827 23.07827 l 13.98,-0.10216 c 11.61139,-0.0849 14.35295,-0.16922 16.18119,-0.49794 z m 91.19882,88.00017 c -0.088,-0.088 -0.16,-37.024 -0.16,-82.08 V 144.96 h 28.02338 c 35.71074,0 44.64839,0.36812 58.60295,2.41372 20.756,3.04263 35.81544,10.62422 48.56969,24.45212 9.03727,9.79803 14.957,21.87489 17.65312,36.01416 2.13132,11.17733 2.22545,24.97307 0.25054,36.71999 -3.46356,20.6016 -14.29928,37.60057 -31.30345,49.10855 -15.52497,10.5069 -32.42587,14.33959 -67.07623,15.21116 -10.41838,0.26206 -54.31364,0.32666 -54.56,0.0803 z m 61.64,-31.99695 c 12.89391,-0.65156 22.02365,-3.26944 30.2508,-8.67416 3.51633,-2.31001 8.47058,-7.2266 10.73046,-10.64889 5.66593,-8.58031 8.09874,-17.90659 8.09874,-31.04689 0,-15.25579 -3.89843,-26.8169 -11.90448,-35.30374 -7.07029,-7.49488 -16.72188,-11.93347 -30.09552,-13.84038 -2.14928,-0.30646 -5.37551,-0.41763 -14.58,-0.50242 l -11.82,-0.10889 v 50.18116 50.18116 l 7.38,-0.003 c 4.059,-0.002 9.432,-0.10695 11.94,-0.23369 z"
       id="path59" />
  </g>
</svg>
